<?xml version="1.0" encoding="UTF-8"?>
<svg width="700px" height="464px" viewBox="0 0 700 464" version="1.1" xmlns="http://www.w3.org/2000/svg" xmlns:xlink="http://www.w3.org/1999/xlink">
    <!-- Generator: Sketch 63.1 (92452) - https://sketch.com -->
    <title>noun-dancing-682595</title>
    <desc>Created with Sketch.</desc>
    <g id="Page-1" stroke="none" stroke-width="1" fill="none" fill-rule="evenodd">
        <g id="Artboard" transform="translate(-12.000000, -230.000000)" fill="#FFFFFF" fill-rule="nonzero">
            <g id="noun-dancing-682595" transform="translate(12.000000, 230.000000)">
                <path d="M256.23,38.621 C259.3902,62.902 242.269,85.144 217.988,88.305 C193.711,91.4612 171.465,74.34 168.308,50.059 C165.1478,25.782 182.269,3.536 206.55,0.379 C230.831,-2.7812 253.073,14.344 256.23,38.621" id="Path"></path>
                <path d="M538.72,20.188 C562.294,26.7896 576.056,51.25 569.458,74.825 C562.8564,98.395 538.396,112.157 514.821,105.555 C491.247,98.9573 477.485,74.496 484.083,50.922 C490.6846,27.348 515.145,13.59 538.72,20.188" id="Path"></path>
                <path d="M694.34,14.652 C688.4689,10.7028 680.508,12.2653 676.57,18.1364 C657.586,46.4764 628.066,70.5384 603.297,87.1054 C590.926,95.4062 579.758,101.8784 571.738,106.2424 C567.7263,108.426 564.5075,110.0862 562.3122,111.1838 C561.2145,111.73458 560.3747,112.14474 559.82,112.4143 C559.26531,112.67993 559.05047,112.77758 559.05047,112.77758 C558.999689,112.801017 558.95672,112.828361 558.90985,112.851798 C554.23405,113.676018 549.02705,114.902598 543.26885,116.757998 C533.76885,119.820498 526.30785,123.207198 520.63185,126.277498 C520.04201,126.445468 519.45215,126.644688 518.87795,126.902498 L518.87795,126.898592 C518.39748,127.101712 504.89395,132.863392 479.85495,132.867392 C459.30795,132.855673 430.90595,128.968992 395.33495,114.687392 C395.10057,113.941302 394.83104,113.199092 394.47948,112.476492 C390.67088,104.644492 381.24548,101.382492 373.41348,105.187392 C347.39348,117.804392 323.43348,121.808392 302.99548,121.816392 C283.94448,121.820298 267.98748,118.269492 256.93348,114.757792 C251.40618,113.003892 247.11708,111.265592 244.29648,110.015592 C242.88628,109.386682 241.84338,108.882792 241.20268,108.566392 C240.87846,108.402332 240.65971,108.285142 240.54252,108.222642 C240.483927,108.191392 240.444864,108.171861 240.44096,108.167955 L240.437054,108.171861 C238.421454,107.062461 236.269054,106.457061 234.112854,106.285161 C233.855044,106.242193 233.589414,106.175781 233.335514,106.152351 C208.679514,103.941451 184.023514,101.726551 159.362514,99.515651 C159.046104,99.484401 158.690634,99.500026 158.346914,99.503932 C152.202414,98.683622 132.139914,95.566432 107.815914,87.628932 C81.514914,79.085932 50.420914,64.831932 26.432914,42.730932 C20.018814,36.840332 10.049914,37.266132 4.155914,43.680152 C-1.730786,50.090352 -1.304986,60.059152 5.105134,65.953152 C36.007134,94.258152 73.750134,110.164152 103.757134,119.410152 C114.546134,122.714852 124.351134,125.140652 132.530134,126.898452 C130.319234,173.855452 140.834834,203.148452 157.358134,246.378452 C157.483134,246.733922 157.588604,247.093292 157.733134,247.444852 L157.729227,247.444852 C157.940167,247.890162 172.596227,284.835852 172.553227,339.092852 C172.549321,366.338852 168.912627,397.947852 158.080227,431.865852 C153.939627,444.822852 161.088027,458.681852 174.049227,462.822852 C176.541427,463.619732 179.064827,463.998652 181.545327,463.998652 C191.975327,463.998652 201.662327,457.318952 205.006327,446.850652 C217.568327,407.502652 221.811327,370.717652 221.811327,339.090652 C221.791795,313.137652 218.971527,290.672652 215.534027,272.895652 C221.854327,278.637852 232.350027,289.747652 243.444027,308.325652 C259.280027,334.903652 276.436027,376.837652 283.561027,440.915652 C284.959427,453.513652 295.627027,462.833652 308.014027,462.837652 C308.920277,462.837652 309.838227,462.78687 310.760127,462.685312 C324.276127,461.185312 334.026127,449.009312 332.526127,435.486312 C323.959727,357.970312 301.303127,306.176312 279.819127,273.616312 C268.467127,256.382312 257.514127,244.577312 249.339127,237.042312 C229.218127,196.050312 232.573127,172.073312 244.261027,143.776312 C257.890027,148.397412 278.156027,153.303612 302.988027,153.338812 L303.081777,153.338812 C325.956777,153.342718 352.675777,149.030212 380.897777,136.455812 C421.577777,153.521812 455.057777,158.490812 479.850777,158.482812 C490.666777,158.482812 499.776777,157.541402 507.162777,156.303112 C508.358077,207.698112 500.815077,257.203112 486.037777,302.773112 C497.494777,303.577802 508.955777,304.382512 520.412777,305.183312 L477.428777,437.453312 C474.065477,447.805312 479.729577,458.922312 490.076777,462.285312 C500.424777,465.648612 511.545777,459.984512 514.908777,449.637312 L560.928777,308.027312 C564.663177,308.289032 568.393577,308.550752 572.127777,308.812472 L572.127777,443.502472 C572.127777,454.385472 580.951977,463.205472 591.830777,463.205472 C602.713777,463.205472 611.533777,454.385172 611.533777,443.502472 L611.533777,311.572472 C623.056777,312.381062 634.576777,313.189672 646.099777,313.994372 C638.646677,246.127372 619.521777,182.204372 591.142777,124.734372 C598.673977,120.429672 607.740777,114.949172 617.556777,108.363372 C643.896777,90.648372 675.744777,65.156372 697.818777,32.410372 C701.767977,26.543172 700.209377,18.586372 694.338277,14.640372 L694.34,14.652 Z" id="Path"></path>
            </g>
        </g>
    </g>
</svg>